<svg width="65" height="36" viewBox="0 0 65 36" fill="none" xmlns="http://www.w3.org/2000/svg">
<line y1="0.695652" x2="64.75" y2="0.695652" stroke="#D5B4FA" stroke-width="0.608696"/>
<line y1="9.44565" x2="64.75" y2="9.44565" stroke="#D5B4FA" stroke-width="0.608696"/>
<line y1="18.1957" x2="64.75" y2="18.1957" stroke="#D5B4FA" stroke-width="0.608696"/>
<line y1="26.9457" x2="64.75" y2="26.9457" stroke="#D5B4FA" stroke-width="0.608696"/>
<line y1="35.6957" x2="64.75" y2="35.6957" stroke="#D5B4FA" stroke-width="0.608696"/>
<path d="M52.0436 15C52.0436 12.6869 51.6784 10.7188 50.948 9.09563C50.2581 7.43186 49.2436 6.17389 47.9045 5.32172C46.5654 4.46954 44.9422 4.04346 43.0349 4.04346C41.1683 4.04346 39.5045 4.48983 38.0436 5.38259C36.5828 6.23476 35.3654 7.53331 34.3915 9.27824C33.7422 7.61447 32.7074 6.33621 31.2871 5.44346C29.9074 4.51012 28.2436 4.04346 26.2958 4.04346C24.5509 4.04346 23.0291 4.42896 21.7306 5.19998C20.4726 5.97099 19.4175 7.1478 18.5654 8.73041V4.65216H13.6958V32.6522H18.5654V15.6087C18.5654 14.1478 18.8291 12.8898 19.3567 11.8348C19.8842 10.7797 20.6349 9.98839 21.6088 9.46085C22.5828 8.89273 23.7393 8.60867 25.0784 8.60867C26.9045 8.60867 28.2436 9.17679 29.0958 10.313C29.9886 11.4493 30.4349 13.2145 30.4349 15.6087V32.6522H35.3045V15.6087C35.3045 14.1478 35.5683 12.8898 36.0958 11.8348C36.6233 10.7797 37.3741 9.98839 38.348 9.46085C39.3219 8.89273 40.4784 8.60867 41.8175 8.60867C43.6436 8.60867 44.9828 9.17679 45.8349 10.313C46.7277 11.4493 47.1741 13.2145 47.1741 15.6087V32.6522H52.0436V15Z" fill="#9061F6"/>
</svg>